<svg xmlns="http://www.w3.org/2000/svg" viewBox="0 0 640 640"><defs><radialGradient id="felt"><stop stop-color="#34503a"/><stop offset="1" stop-color="#14241b"/></radialGradient><pattern id="scan" width="4" height="4" patternUnits="userSpaceOnUse"><path fill="#000" opacity=".1" d="M0 0h4v1H0z"/></pattern><pattern id="back" width="8" height="8" patternUnits="userSpaceOnUse"><path fill="#304c37" d="M0 0h8v8H0z"/><path stroke="#acb58a" stroke-width="2" d="m0 0 8 8m-4-12 12 12M-4 4l8 8"/></pattern></defs><path fill="url(#felt)" d="M0 0h640v640H0z"/><path fill="none" stroke="#6b7d55" d="M25 25h590v590H25zM34 34h572v572H34z"/><g fill="#aab982"><path d="m25 16 9 9-9 9-9-9zm590 0 9 9-9 9-9-9zM25 606l9 9-9 9-9-9zm590 0 9 9-9 9-9-9z"/></g><g transform="translate(200 35) scale(2)" shape-rendering="crispEdges"><path fill="#253b2d" d="M40 12h40v8h12v12h8v48h12v24H8V80h12V32h8V20h12Z"/><path fill="#0a120d" d="M40 20h40v8h8v12h8v44H24V40h8V28h8Z"/><path fill="#40543d" d="M40 25h8v-5h24v5h8v8h8v40h-8V42h-8V32H48v10h-8v31h-8V33h8Z"/><path fill="#e2e4be" d="M40 44h16v4H40Zm24 0h16v4H64Z"/><path fill="#182b1e" d="M48 76h24v12h16v16H32V88h16Z"/></g><text x="320" y="270" text-anchor="middle" fill="#c9d6a6" font-family="monospace" font-size="12" letter-spacing="6">THE HOUSE CAN BLEED.</text><g transform="translate(174 300) rotate(-12 65 95)"><path fill="#09150c" d="M7 8h130v183H7z"/><path fill="#e0e3c5" stroke="#aab390" stroke-width="5" d="M0 0h130v183H0z"/><text x="13" y="43" fill="#263c2c" font-family="monospace" font-weight="bold" font-size="36">A</text><path fill="#263c2c" d="M58 65h14v14h14v14h14v28H86v14H72v-14H58v14H44v-14H30V93h14V79h14zm0 60h14v20h14v7H44v-7h14z"/></g><g transform="translate(327 305) rotate(11 65 95)"><path fill="#09150c" d="M7 8h130v183H7z"/><path fill="#e0e3c5" stroke="#aab390" stroke-width="5" d="M0 0h130v183H0z"/><text x="13" y="43" fill="#a85544" font-family="monospace" font-weight="bold" font-size="36">J</text><path fill="#a85544" d="M31 67h25v10h16V67h25v13h13v33H97v13H84v13H71v13H58v-13H45v-13H32v-13H19V80h12z"/></g><text x="320" y="556" text-anchor="middle" fill="#e0e6bc" font-family="monospace" font-weight="bold" font-size="42" letter-spacing="6">WHITE JACK</text><text x="320" y="584" text-anchor="middle" fill="#9cae89" font-family="monospace" font-size="11" letter-spacing="4">BEND THE ODDS. GO DEEPER.</text><path fill="url(#scan)" d="M0 0h640v640H0z"/></svg>
